<svg xmlns="http://www.w3.org/2000/svg" viewBox="0 0 256 256" width="256" height="256" role="img" aria-label="Broccoli"><g><path d="M117.00 187.92 Q114.00 217.92 121.00 223.92 Q128.00 227.92 135.00 223.92 Q142.00 217.92 139.00 187.92 Z" fill="#c9e8a6"/><path d="M51.98 187.37 a16.72 16.72 0 1 0 33.44 0 a16.72 16.72 0 1 0 -33.44 0 Z" fill="#3b945e" stroke="#155c33" stroke-width="1" stroke-linejoin="round"/><circle cx="68.23" cy="184.30" r="5.39" fill="#5eb37d" opacity="0.85"/><path d="M198.06 121.49 a16.70 16.70 0 1 0 33.39 0 a16.70 16.70 0 1 0 -33.39 0 Z" fill="#318a55" stroke="#155c33" stroke-width="1" stroke-linejoin="round"/><circle cx="207.63" cy="107.87" r="5.39" fill="#53a974" opacity="0.85"/><path d="M43.02 79.35 a16.68 16.68 0 1 0 33.35 0 a16.68 16.68 0 1 0 -33.35 0 Z" fill="#6cc08a" stroke="#155c33" stroke-width="1" stroke-linejoin="round"/><circle cx="49.90" cy="77.84" r="5.38" fill="#8edfa9" opacity="0.85"/><path d="M126.19 205.67 a16.65 16.65 0 1 0 33.31 0 a16.65 16.65 0 1 0 -33.31 0 Z" fill="#2b8550" stroke="#155c33" stroke-width="1" stroke-linejoin="round"/><circle cx="143.47" cy="197.13" r="5.37" fill="#4da46f" opacity="0.85"/><path d="M157.21 62.07 a16.63 16.63 0 1 0 33.26 0 a16.63 16.63 0 1 0 -33.26 0 Z" fill="#52a973" stroke="#155c33" stroke-width="1" stroke-linejoin="round"/><circle cx="161.92" cy="52.15" r="5.37" fill="#75c892" opacity="0.85"/><path d="M29.67 147.59 a16.61 16.61 0 1 0 33.22 0 a16.61 16.61 0 1 0 -33.22 0 Z" fill="#4ea46f" stroke="#155c33" stroke-width="1" stroke-linejoin="round"/><circle cx="42.79" cy="146.88" r="5.36" fill="#70c48e" opacity="0.85"/><path d="M185.47 164.07 a16.59 16.59 0 1 0 33.17 0 a16.59 16.59 0 1 0 -33.17 0 Z" fill="#2a844f" stroke="#155c33" stroke-width="1" stroke-linejoin="round"/><circle cx="198.97" cy="151.04" r="5.35" fill="#4ca36e" opacity="0.85"/><path d="M83.23 56.09 a16.56 16.56 0 1 0 33.13 0 a16.56 16.56 0 1 0 -33.13 0 Z" fill="#75c893" stroke="#155c33" stroke-width="1" stroke-linejoin="round"/><circle cx="87.75" cy="51.73" r="5.34" fill="#98e8b2" opacity="0.85"/><path d="M79.72 197.98 a16.54 16.54 0 1 0 33.08 0 a16.54 16.54 0 1 0 -33.08 0 Z" fill="#37905a" stroke="#155c33" stroke-width="1" stroke-linejoin="round"/><circle cx="96.78" cy="192.95" r="5.34" fill="#59af79" opacity="0.85"/><path d="M185.86 96.72 a16.52 16.52 0 1 0 33.04 0 a16.52 16.52 0 1 0 -33.04 0 Z" fill="#3f9762" stroke="#155c33" stroke-width="1" stroke-linejoin="round"/><circle cx="193.02" cy="84.12" r="5.33" fill="#61b681" opacity="0.85"/><path d="M34.38 104.88 a16.50 16.50 0 1 0 32.99 0 a16.50 16.50 0 1 0 -32.99 0 Z" fill="#63b883" stroke="#155c33" stroke-width="1" stroke-linejoin="round"/><circle cx="43.41" cy="104.42" r="5.32" fill="#86d8a2" opacity="0.85"/><path d="M151.34 192.25 a16.47 16.47 0 1 0 32.95 0 a16.47 16.47 0 1 0 -32.95 0 Z" fill="#2c8550" stroke="#155c33" stroke-width="1" stroke-linejoin="round"/><circle cx="167.58" cy="181.79" r="5.31" fill="#4ea56f" opacity="0.85"/><path d="M129.10 56.49 a16.45 16.45 0 1 0 32.90 0 a16.45 16.45 0 1 0 -32.90 0 Z" fill="#65ba84" stroke="#155c33" stroke-width="1" stroke-linejoin="round"/><circle cx="133.14" cy="48.75" r="5.31" fill="#87d9a3" opacity="0.85"/><path d="M46.47 169.20 a16.43 16.43 0 1 0 32.85 0 a16.43 16.43 0 1 0 -32.85 0 Z" fill="#479e69" stroke="#155c33" stroke-width="1" stroke-linejoin="round"/><circle cx="61.49" cy="167.24" r="5.30" fill="#69be88" opacity="0.85"/><path d="M189.13 138.27 a16.40 16.40 0 1 0 32.80 0 a16.40 16.40 0 1 0 -32.80 0 Z" fill="#338c57" stroke="#155c33" stroke-width="1" stroke-linejoin="round"/><circle cx="200.08" cy="124.79" r="5.29" fill="#55ab76" opacity="0.85"/><path d="M62.26 72.92 a16.38 16.38 0 1 0 32.76 0 a16.38 16.38 0 1 0 -32.76 0 Z" fill="#78cb95" stroke="#155c33" stroke-width="1" stroke-linejoin="round"/><circle cx="67.94" cy="70.48" r="5.28" fill="#9aeab4" opacity="0.85"/><path d="M107.85 198.62 a16.35 16.35 0 1 0 32.71 0 a16.35 16.35 0 1 0 -32.71 0 Z" fill="#348d58" stroke="#155c33" stroke-width="1" stroke-linejoin="round"/><circle cx="124.99" cy="191.54" r="5.28" fill="#57ad77" opacity="0.85"/><path d="M166.02 78.92 a16.33 16.33 0 1 0 32.66 0 a16.33 16.33 0 1 0 -32.66 0 Z" fill="#4fa671" stroke="#155c33" stroke-width="1" stroke-linejoin="round"/><circle cx="171.37" cy="68.02" r="5.27" fill="#72c590" opacity="0.85"/><path d="M36.28 130.03 a16.30 16.30 0 1 0 32.61 0 a16.30 16.30 0 1 0 -32.61 0 Z" fill="#5bb07b" stroke="#155c33" stroke-width="1" stroke-linejoin="round"/><circle cx="47.68" cy="129.71" r="5.26" fill="#7dd09a" opacity="0.85"/><path d="M168.34 172.82 a16.28 16.28 0 1 0 32.56 0 a16.28 16.28 0 1 0 -32.56 0 Z" fill="#308954" stroke="#155c33" stroke-width="1" stroke-linejoin="round"/><circle cx="182.86" cy="160.80" r="5.25" fill="#52a973" opacity="0.85"/><path d="M102.72 60.50 a16.25 16.25 0 1 0 32.51 0 a16.25 16.25 0 1 0 -32.51 0 Z" fill="#76c993" stroke="#155c33" stroke-width="1" stroke-linejoin="round"/><circle cx="106.77" cy="54.96" r="5.24" fill="#98e9b3" opacity="0.85"/><path d="M69.17 182.73 a16.23 16.23 0 1 0 32.46 0 a16.23 16.23 0 1 0 -32.46 0 Z" fill="#429a64" stroke="#155c33" stroke-width="1" stroke-linejoin="round"/><circle cx="85.40" cy="179.03" r="5.23" fill="#64b984" opacity="0.85"/><path d="M182.78 114.65 a16.20 16.20 0 1 0 32.41 0 a16.20 16.20 0 1 0 -32.41 0 Z" fill="#3f9762" stroke="#155c33" stroke-width="1" stroke-linejoin="round"/><circle cx="191.16" cy="101.66" r="5.23" fill="#62b781" opacity="0.85"/><path d="M50.35 94.09 a16.18 16.18 0 1 0 32.35 0 a16.18 16.18 0 1 0 -32.35 0 Z" fill="#71c58f" stroke="#155c33" stroke-width="1" stroke-linejoin="round"/><circle cx="57.80" cy="93.11" r="5.22" fill="#94e4ae" opacity="0.85"/><path d="M132.35 190.41 a16.15 16.15 0 1 0 32.30 0 a16.15 16.15 0 1 0 -32.30 0 Z" fill="#358e58" stroke="#155c33" stroke-width="1" stroke-linejoin="round"/><circle cx="148.87" cy="181.35" r="5.21" fill="#57ad77" opacity="0.85"/><path d="M142.28 69.91 a16.12 16.12 0 1 0 32.25 0 a16.12 16.12 0 1 0 -32.25 0 Z" fill="#61b681" stroke="#155c33" stroke-width="1" stroke-linejoin="round"/><circle cx="146.53" cy="61.05" r="5.20" fill="#83d5a0" opacity="0.85"/><path d="M47.38 151.30 a16.10 16.10 0 1 0 32.19 0 a16.10 16.10 0 1 0 -32.19 0 Z" fill="#53aa74" stroke="#155c33" stroke-width="1" stroke-linejoin="round"/><circle cx="60.93" cy="150.22" r="5.19" fill="#76c993" opacity="0.85"/><path d="M175.82 150.79 a16.07 16.07 0 1 0 32.14 0 a16.07 16.07 0 1 0 -32.14 0 Z" fill="#37905b" stroke="#155c33" stroke-width="1" stroke-linejoin="round"/><circle cx="188.04" cy="137.84" r="5.18" fill="#5aaf7a" opacity="0.85"/><path d="M81.69 72.32 a16.04 16.04 0 1 0 32.08 0 a16.04 16.04 0 1 0 -32.08 0 Z" fill="#82d49e" stroke="#155c33" stroke-width="1" stroke-linejoin="round"/><circle cx="86.44" cy="68.83" r="5.17" fill="#9aeab4" opacity="0.85"/><path d="M93.71 187.15 a16.01 16.01 0 1 0 32.03 0 a16.01 16.01 0 1 0 -32.03 0 Z" fill="#3f9762" stroke="#155c33" stroke-width="1" stroke-linejoin="round"/><circle cx="110.41" cy="181.50" r="5.17" fill="#62b781" opacity="0.85"/><path d="M168.44 96.44 a15.99 15.99 0 1 0 31.97 0 a15.99 15.99 0 1 0 -31.97 0 Z" fill="#4ea56f" stroke="#155c33" stroke-width="1" stroke-linejoin="round"/><circle cx="174.65" cy="84.76" r="5.16" fill="#70c48e" opacity="0.85"/><path d="M48.13 116.09 a15.96 15.96 0 1 0 31.91 0 a15.96 15.96 0 1 0 -31.91 0 Z" fill="#69bd87" stroke="#155c33" stroke-width="1" stroke-linejoin="round"/><circle cx="57.78" cy="115.80" r="5.15" fill="#8bdca7" opacity="0.85"/><path d="M150.13 175.71 a15.93 15.93 0 1 0 31.86 0 a15.93 15.93 0 1 0 -31.86 0 Z" fill="#38915b" stroke="#155c33" stroke-width="1" stroke-linejoin="round"/><circle cx="165.33" cy="164.92" r="5.14" fill="#5ab07a" opacity="0.85"/><path d="M118.82 69.97 a15.90 15.90 0 1 0 31.80 0 a15.90 15.90 0 1 0 -31.80 0 Z" fill="#73c791" stroke="#155c33" stroke-width="1" stroke-linejoin="round"/><circle cx="122.67" cy="63.27" r="5.13" fill="#95e6b0" opacity="0.85"/><path d="M65.00 165.88 a15.87 15.87 0 1 0 31.74 0 a15.87 15.87 0 1 0 -31.74 0 Z" fill="#4ea570" stroke="#155c33" stroke-width="1" stroke-linejoin="round"/><circle cx="80.11" cy="163.37" r="5.12" fill="#71c48f" opacity="0.85"/><path d="M173.86 129.70 a15.84 15.84 0 1 0 31.68 0 a15.84 15.84 0 1 0 -31.68 0 Z" fill="#429a65" stroke="#155c33" stroke-width="1" stroke-linejoin="round"/><circle cx="183.50" cy="116.70" r="5.11" fill="#65b984" opacity="0.85"/><path d="M68.53 89.09 a15.81 15.81 0 1 0 31.61 0 a15.81 15.81 0 1 0 -31.61 0 Z" fill="#80d29c" stroke="#155c33" stroke-width="1" stroke-linejoin="round"/><circle cx="74.62" cy="87.33" r="5.10" fill="#9aeab4" opacity="0.85"/><path d="M116.02 182.94 a15.78 15.78 0 1 0 31.55 0 a15.78 15.78 0 1 0 -31.55 0 Z" fill="#3f9762" stroke="#155c33" stroke-width="1" stroke-linejoin="round"/><circle cx="132.48" cy="175.33" r="5.09" fill="#62b781" opacity="0.85"/><path d="M149.39 85.92 a15.74 15.74 0 1 0 31.49 0 a15.74 15.74 0 1 0 -31.49 0 Z" fill="#5eb47e" stroke="#155c33" stroke-width="1" stroke-linejoin="round"/><circle cx="154.09" cy="76.08" r="5.08" fill="#81d39d" opacity="0.85"/><path d="M54.84 135.42 a15.71 15.71 0 1 0 31.42 0 a15.71 15.71 0 1 0 -31.42 0 Z" fill="#61b680" stroke="#155c33" stroke-width="1" stroke-linejoin="round"/><circle cx="66.72" cy="134.92" r="5.07" fill="#83d5a0" opacity="0.85"/><path d="M159.32 157.73 a15.68 15.68 0 1 0 31.36 0 a15.68 15.68 0 1 0 -31.36 0 Z" fill="#3e9761" stroke="#155c33" stroke-width="1" stroke-linejoin="round"/><circle cx="172.57" cy="145.67" r="5.06" fill="#61b680" opacity="0.85"/><path d="M99.51 77.84 a15.65 15.65 0 1 0 31.29 0 a15.65 15.65 0 1 0 -31.29 0 Z" fill="#84d6a0" stroke="#155c33" stroke-width="1" stroke-linejoin="round"/><circle cx="103.61" cy="73.26" r="5.05" fill="#9aeab4" opacity="0.85"/><path d="M85.41 172.12 a15.61 15.61 0 1 0 31.22 0 a15.61 15.61 0 1 0 -31.22 0 Z" fill="#4ba26d" stroke="#155c33" stroke-width="1" stroke-linejoin="round"/><circle cx="101.36" cy="167.84" r="5.04" fill="#6ec28c" opacity="0.85"/><path d="M163.93 112.92 a15.58 15.58 0 1 0 31.16 0 a15.58 15.58 0 1 0 -31.16 0 Z" fill="#50a671" stroke="#155c33" stroke-width="1" stroke-linejoin="round"/><circle cx="171.16" cy="100.77" r="5.03" fill="#72c690" opacity="0.85"/><path d="M64.41 107.37 a15.54 15.54 0 1 0 31.09 0 a15.54 15.54 0 1 0 -31.09 0 Z" fill="#76ca94" stroke="#155c33" stroke-width="1" stroke-linejoin="round"/><circle cx="72.38" cy="106.78" r="5.01" fill="#99e9b3" opacity="0.85"/><path d="M132.58 172.05 a15.51 15.51 0 1 0 31.01 0 a15.51 15.51 0 1 0 -31.01 0 Z" fill="#429a65" stroke="#155c33" stroke-width="1" stroke-linejoin="round"/><circle cx="148.12" cy="162.63" r="5.00" fill="#65b984" opacity="0.85"/><path d="M129.71 83.99 a15.47 15.47 0 1 0 30.94 0 a15.47 15.47 0 1 0 -30.94 0 Z" fill="#6fc38d" stroke="#155c33" stroke-width="1" stroke-linejoin="round"/><circle cx="133.58" cy="76.24" r="4.99" fill="#92e2ac" opacity="0.85"/><path d="M68.32 148.96 a15.43 15.43 0 1 0 30.86 0 a15.43 15.43 0 1 0 -30.86 0 Z" fill="#5bb17c" stroke="#155c33" stroke-width="1" stroke-linejoin="round"/><circle cx="82.03" cy="147.45" r="4.98" fill="#7ed09b" opacity="0.85"/><path d="M159.48 140.06 a15.39 15.39 0 1 0 30.79 0 a15.39 15.39 0 1 0 -30.79 0 Z" fill="#48a06a" stroke="#155c33" stroke-width="1" stroke-linejoin="round"/><circle cx="170.31" cy="127.46" r="4.97" fill="#6bbf8a" opacity="0.85"/><path d="M87.42 91.00 a15.35 15.35 0 1 0 30.71 0 a15.35 15.35 0 1 0 -30.71 0 Z" fill="#8ddea8" stroke="#155c33" stroke-width="1" stroke-linejoin="round"/><circle cx="92.41" cy="88.34" r="4.95" fill="#9aeab4" opacity="0.85"/><path d="M104.40 169.87 a15.31 15.31 0 1 0 30.63 0 a15.31 15.31 0 1 0 -30.63 0 Z" fill="#4ca36d" stroke="#155c33" stroke-width="1" stroke-linejoin="round"/><circle cx="120.45" cy="163.71" r="4.94" fill="#6ec28c" opacity="0.85"/><path d="M148.88 103.22 a15.27 15.27 0 1 0 30.55 0 a15.27 15.27 0 1 0 -30.55 0 Z" fill="#5fb47e" stroke="#155c33" stroke-width="1" stroke-linejoin="round"/><circle cx="154.21" cy="92.64" r="4.93" fill="#81d39d" opacity="0.85"/><path d="M69.16 123.51 a15.23 15.23 0 1 0 30.46 0 a15.23 15.23 0 1 0 -30.46 0 Z" fill="#6ec28c" stroke="#155c33" stroke-width="1" stroke-linejoin="round"/><circle cx="79.27" cy="123.26" r="4.91" fill="#90e1ab" opacity="0.85"/><path d="M140.85 157.46 a15.19 15.19 0 1 0 30.37 0 a15.19 15.19 0 1 0 -30.37 0 Z" fill="#49a06b" stroke="#155c33" stroke-width="1" stroke-linejoin="round"/><circle cx="154.78" cy="146.58" r="4.90" fill="#6cc08a" opacity="0.85"/><path d="M113.69 90.11 a15.14 15.14 0 1 0 30.28 0 a15.14 15.14 0 1 0 -30.28 0 Z" fill="#7dd09a" stroke="#155c33" stroke-width="1" stroke-linejoin="round"/><circle cx="117.39" cy="84.48" r="4.88" fill="#9aeab4" opacity="0.85"/><path d="M85.16 154.31 a15.09 15.09 0 1 0 30.19 0 a15.09 15.09 0 1 0 -30.19 0 Z" fill="#59af7a" stroke="#155c33" stroke-width="1" stroke-linejoin="round"/><circle cx="100.01" cy="151.29" r="4.87" fill="#7cce99" opacity="0.85"/><path d="M151.40 126.41 a15.05 15.05 0 1 0 30.09 0 a15.05 15.05 0 1 0 -30.09 0 Z" fill="#55ab76" stroke="#155c33" stroke-width="1" stroke-linejoin="round"/><circle cx="159.70" cy="114.20" r="4.85" fill="#78cb95" opacity="0.85"/><path d="M84.70 106.08 a15.00 15.00 0 1 0 29.99 0 a15.00 15.00 0 1 0 -29.99 0 Z" fill="#7fd29c" stroke="#155c33" stroke-width="1" stroke-linejoin="round"/><circle cx="91.15" cy="104.90" r="4.84" fill="#9aeab4" opacity="0.85"/><path d="M117.71 160.29 a14.94 14.94 0 1 0 29.89 0 a14.94 14.94 0 1 0 -29.89 0 Z" fill="#50a771" stroke="#155c33" stroke-width="1" stroke-linejoin="round"/><circle cx="133.14" cy="152.36" r="4.82" fill="#73c690" opacity="0.85"/><path d="M132.72 102.66 a14.89 14.89 0 1 0 29.78 0 a14.89 14.89 0 1 0 -29.78 0 Z" fill="#6dc18b" stroke="#155c33" stroke-width="1" stroke-linejoin="round"/><circle cx="136.81" cy="94.04" r="4.80" fill="#8fe0aa" opacity="0.85"/><path d="M81.55 133.62 a14.83 14.83 0 1 0 29.66 0 a14.83 14.83 0 1 0 -29.66 0 Z" fill="#69bd87" stroke="#155c33" stroke-width="1" stroke-linejoin="round"/><circle cx="93.57" cy="132.86" r="4.78" fill="#8bdca7" opacity="0.85"/><path d="M138.98 142.92 a14.77 14.77 0 1 0 29.54 0 a14.77 14.77 0 1 0 -29.54 0 Z" fill="#54ab75" stroke="#155c33" stroke-width="1" stroke-linejoin="round"/><circle cx="150.70" cy="131.19" r="4.76" fill="#77ca94" opacity="0.85"/><path d="M105.82 102.72 a14.71 14.71 0 1 0 29.41 0 a14.71 14.71 0 1 0 -29.41 0 Z" fill="#7fd19c" stroke="#155c33" stroke-width="1" stroke-linejoin="round"/><circle cx="109.96" cy="99.11" r="4.74" fill="#9aeab4" opacity="0.85"/><path d="M100.95 149.47 a14.64 14.64 0 1 0 29.27 0 a14.64 14.64 0 1 0 -29.27 0 Z" fill="#5cb17c" stroke="#155c33" stroke-width="1" stroke-linejoin="round"/><circle cx="116.12" cy="144.75" r="4.72" fill="#7ed19b" opacity="0.85"/><path d="M136.62 121.22 a14.56 14.56 0 1 0 29.12 0 a14.56 14.56 0 1 0 -29.12 0 Z" fill="#64b883" stroke="#155c33" stroke-width="1" stroke-linejoin="round"/><circle cx="142.68" cy="110.28" r="4.70" fill="#86d8a2" opacity="0.85"/><path d="M93.91 118.90 a14.48 14.48 0 1 0 28.95 0 a14.48 14.48 0 1 0 -28.95 0 Z" fill="#74c792" stroke="#155c33" stroke-width="1" stroke-linejoin="round"/><circle cx="102.15" cy="118.56" r="4.67" fill="#96e7b1" opacity="0.85"/><path d="M119.97 144.64 a14.38 14.38 0 1 0 28.76 0 a14.38 14.38 0 1 0 -28.76 0 Z" fill="#5cb17c" stroke="#155c33" stroke-width="1" stroke-linejoin="round"/><circle cx="133.98" cy="135.27" r="4.64" fill="#7ed19b" opacity="0.85"/><path d="M120.77 114.83 a14.27 14.27 0 1 0 28.53 0 a14.27 14.27 0 1 0 -28.53 0 Z" fill="#71c58f" stroke="#155c33" stroke-width="1" stroke-linejoin="round"/><circle cx="124.24" cy="108.38" r="4.60" fill="#94e4ae" opacity="0.85"/><path d="M102.11 130.50 a14.12 14.12 0 1 0 28.24 0 a14.12 14.12 0 1 0 -28.24 0 Z" fill="#69bd87" stroke="#155c33" stroke-width="1" stroke-linejoin="round"/><circle cx="115.23" cy="128.62" r="4.55" fill="#8bdca7" opacity="0.85"/><path d="M114.24 133.55 a13.76 13.76 0 1 0 27.53 0 a13.76 13.76 0 1 0 -27.53 0 Z" fill="#6abe89" stroke="#155c33" stroke-width="1" stroke-linejoin="round"/><circle cx="123.12" cy="122.23" r="4.44" fill="#8cdea8" opacity="0.85"/><ellipse cx="101.00" cy="155.84" rx="6" ry="3.6" fill="#ff8aa6" opacity="0.6"/><ellipse cx="155.00" cy="155.84" rx="6" ry="3.6" fill="#ff8aa6" opacity="0.6"/><ellipse cx="109.00" cy="143.84" rx="6.54" ry="7.60" fill="#0c2d18"/><circle cx="111.40" cy="141.24" r="2.1" fill="#fff"/><ellipse cx="147.00" cy="143.84" rx="6.54" ry="7.60" fill="#0c2d18"/><circle cx="149.40" cy="141.24" r="2.1" fill="#fff"/><path d="M120.00 155.84 Q128.00 163.84 136.00 155.84" fill="none" stroke="#0c2d18" stroke-width="2.6" stroke-linecap="round"/></g></svg>